<?xml version="1.0" encoding="UTF-8" standalone="no"?>
<!DOCTYPE svg PUBLIC "-//W3C//DTD SVG 1.1//EN"
"http://www.w3.org/Graphics/SVG/1.1/DTD/svg11.dtd">


<!-- Page 1 -->
<svg x="0" y="0" width="866" height="866" viewBox="0 0 866 866" version="1.1" xmlns="http://www.w3.org/2000/svg" xmlns:xlink="http://www.w3.org/1999/xlink"
style="display: block;margin-left: auto;margin-right: auto;">
<defs>
<clipPath id="c_1"><path d="M0,0H866V866H0Z"/></clipPath>
<style type="text/css"><![CDATA[
text { white-space: pre; }
path, image { pointer-events: none; }

.s1{
font-size: 111.89px;
font-family: RubikOne-Regular_3p;
fill: #FFFFFF;
}

.g0{
fill: #231F20;
}
.g1{
fill: none;
stroke: #231F20;
stroke-width: 6.111;
stroke-linecap: butt;
stroke-linejoin: miter;
}
.g2{
fill: #FFFFFF;
}

]]></style>

</defs>
<g clip-path="url(#c_1)">
<path d="M0,0
L0,866
L866,866
L866,0 Z " 
fill="none" stroke="none"/>
<path d="M611.3,446.9c0,96.6,-78.2,174.8,-174.8,174.8c-96.6,0,-174.8,-78.2,-174.8,-174.8c0,-96.5,78.2,-174.8,174.8,-174.8c96.6,0,174.8,78.3,174.8,174.8Z" class="g0"/>
<path d="M611.3,446.9c0,96.6,-78.2,174.8,-174.8,174.8c-96.6,0,-174.8,-78.2,-174.8,-174.8c0,-96.5,78.2,-174.8,174.8,-174.8c96.6,0,174.8,78.3,174.8,174.8Z" class="g1"/>
<path d="M527.7,594.2c-12.3,7.7,-25.9,13.9,-40.4,18.3C395.8,640.5,299,589,271,497.5C243,406,294.5,309.2,386,281.2c14.6,-4.5,29.2,-6.9,43.7,-7.5c-65.4,40.4,-98.1,121.1,-74.6,198.1c23.5,76.9,95.8,125.6,172.6,122.4Z" class="g2"/>
<path d="M527.7,594.2c-12.3,7.7,-25.9,13.9,-40.4,18.3C395.8,640.5,299,589,271,497.5C243,406,294.5,309.2,386,281.2c14.6,-4.5,29.2,-6.9,43.7,-7.5c-65.4,40.4,-98.1,121.1,-74.6,198.1c23.5,76.9,95.8,125.6,172.6,122.4Z" class="g1"/>
<text transform="matrix(1.04,0,0,1,399,391)" class="s1">E</text>
<text transform="matrix(1.04,0,0,1,481,436)" class="s1">K</text>
<text transform="matrix(1.04,0,0,1,396,489)" class="s1">N</text>
<text transform="matrix(0.97,0,0,1,481,537)" class="s1">M</text>
<path d="M689,446.9H611.3" class="g1"/>
<path d="M792.3,427.2c-3.2,0,-5.9,2.6,-5.9,5.9c0,3.2,2.7,5.8,5.9,5.8c3.3,0,5.9,-2.6,5.9,-5.8c0,-3.3,-2.6,-5.9,-5.9,-5.9Z" class="g2"/>
<path d="M792.3,427.2c-3.2,0,-5.9,2.6,-5.9,5.9c0,3.2,2.7,5.8,5.9,5.8c3.3,0,5.9,-2.6,5.9,-5.8c0,-3.3,-2.6,-5.9,-5.9,-5.9ZM638.2,298.2l-67.3,38.9" class="g1"/>
<path d="M727.8,289.7c-2.8,1.6,-3.8,5.2,-2.1,8c1.6,2.8,5.2,3.8,8,2.1c2.8,-1.6,3.8,-5.2,2.1,-8c-1.6,-2.8,-5.2,-3.8,-8,-2.1Z" class="g2"/>
<path d="M727.8,289.7c-2.8,1.6,-3.8,5.2,-2.1,8c1.6,2.8,5.2,3.8,8,2.1c2.8,-1.6,3.8,-5.2,2.1,-8c-1.6,-2.8,-5.2,-3.8,-8,-2.1Zm58.6,143.4H708.8M698.6,440c0,-3.8,4.6,-6.9,10.2,-6.9M698.6,440c0,3.8,-4.3,6.9,-9.6,6.9M724.9,294.3H647.2" class="g1"/>
<path d="M639.6,301c2,-1.3,5,-4.1,7.5,-3.7c1.7,.2,3.3,-.4,3.8,-2.2c.4,-1.4,-.5,-3.5,-2.1,-3.7c-4.9,-.7,-8.4,1.8,-12.3,4.3c-3.3,2.1,-.2,7.4,3.1,5.3Z" class="g0"/>
<path d="M181.7,447.4h77.7" class="g1"/>
<path d="M78.4,467.2c3.3,0,5.9,-2.7,5.9,-5.9c0,-3.3,-2.6,-5.9,-5.9,-5.9c-3.2,0,-5.9,2.6,-5.9,5.9c0,3.2,2.7,5.9,5.9,5.9Z" class="g2"/>
<path d="M78.4,467.2c3.3,0,5.9,-2.7,5.9,-5.9c0,-3.3,-2.6,-5.9,-5.9,-5.9c-3.2,0,-5.9,2.6,-5.9,5.9c0,3.2,2.7,5.9,5.9,5.9Zm5.9,-5.9H162m10.1,-6.9c0,3.8,-4.5,6.9,-10.1,6.9m10.1,-6.9c0,-3.9,4.3,-7,9.6,-7m66.9,166.2l67.3,-38.8" class="g1"/>
<path d="M159,622.6c2.8,-1.6,3.8,-5.2,2.2,-8c-1.6,-2.8,-5.2,-3.8,-8,-2.1c-2.9,1.6,-3.8,5.2,-2.2,8c1.6,2.8,5.2,3.8,8,2.1Z" class="g2"/>
<path d="M159,622.6c2.8,-1.6,3.8,-5.2,2.2,-8c-1.6,-2.8,-5.2,-3.8,-8,-2.1c-2.9,1.6,-3.8,5.2,-2.2,8c1.6,2.8,5.2,3.8,8,2.1Zm3,-5h77.6" class="g1"/>
<path d="M247.2,610.9c-2,1.2,-5,4,-7.5,3.7c-1.6,-.3,-3.3,.4,-3.8,2.1c-.4,1.4,.5,3.5,2.2,3.8c4.8,.6,8.3,-1.8,12.2,-4.3c3.3,-2.1,.2,-7.4,-3.1,-5.3Z" class="g0"/>
<path d="M620.9,613.6L553.6,574.8" class="g1"/>
<path d="M710.4,622.6c-2.8,-1.6,-3.7,-5.2,-2.1,-8c1.6,-2.8,5.2,-3.8,8,-2.1c2.8,1.6,3.8,5.2,2.2,8c-1.7,2.8,-5.2,3.8,-8.1,2.1Z" class="g2"/>
<path d="M710.4,622.6c-2.8,-1.6,-3.7,-5.2,-2.1,-8c1.6,-2.8,5.2,-3.8,8,-2.1c2.8,1.6,3.8,5.2,2.2,8c-1.7,2.8,-5.2,3.8,-8.1,2.1Zm-2.9,-5H629.8" class="g1"/>
<path d="M619.2,616.2c3.9,2.5,7.4,4.9,12.2,4.3c1.7,-.3,2.5,-2.4,2.1,-3.8c-.4,-1.8,-2.1,-2.4,-3.7,-2.1c-2.5,.3,-5.6,-2.5,-7.5,-3.7c-3.4,-2.1,-6.4,3.2,-3.1,5.3Z" class="g0"/>
<path d="M224.1,307.7l67.3,38.8" class="g1"/>
<path d="M134.6,299.1c2.8,1.6,3.7,5.2,2.1,8c-1.6,2.8,-5.2,3.8,-8,2.2c-2.8,-1.6,-3.8,-5.2,-2.2,-8c1.7,-2.9,5.2,-3.8,8.1,-2.2Z" class="g2"/>
<path d="M134.6,299.1c2.8,1.6,3.7,5.2,2.1,8c-1.6,2.8,-5.2,3.8,-8,2.2c-2.8,-1.6,-3.8,-5.2,-2.2,-8c1.7,-2.9,5.2,-3.8,8.1,-2.2Zm2.9,4.6h77.7" class="g1"/>
<path d="M225.8,305.1c-3.9,-2.5,-7.4,-4.9,-12.2,-4.3c-1.7,.3,-2.5,2.4,-2.1,3.8c.4,1.8,2.1,2.4,3.7,2.1c2.5,-.3,5.6,2.5,7.5,3.7c3.4,2.1,6.4,-3.2,3.1,-5.3Z" class="g0"/>

</g>

<!-- Any embedded fonts defined here -->
<style type="text/css" ><![CDATA[

@font-face {
	font-family: RubikOne-Regular_3p;
	src: url("fonts/RubikOne-Regular_3p.woff") format("woff");
}

]]></style>

</svg>
